<mxfile host="app.diagrams.net" modified="2023-03-07T17:09:23.831Z" agent="5.0 (Windows NT 10.0; Win64; x64) AppleWebKit/537.36 (KHTML, like Gecko) Chrome/110.0.0.0 Safari/537.36" etag="PUOa_iaZJWVsqAEKVQ60" version="21.0.2" type="github">
  <diagram name="Page-1" id="cQ5CMKUKB73tTbLdVCQ3">
    <mxGraphModel dx="2345" dy="984" grid="1" gridSize="10" guides="1" tooltips="1" connect="1" arrows="1" fold="1" page="1" pageScale="1" pageWidth="827" pageHeight="1169" math="0" shadow="0">
      <root>
        <mxCell id="0" />
        <mxCell id="1" parent="0" />
        <mxCell id="fQxk1bWwGIDrLUCAxITk-1" value="&lt;b id=&quot;docs-internal-guid-f15a52aa-7fff-0456-3b0e-759d45cab837&quot; style=&quot;font-weight:normal;&quot;&gt;&lt;span style=&quot;font-size: 11pt; font-family: Calibri, sans-serif; color: rgb(0, 0, 0); background-color: transparent; font-weight: 400; font-style: normal; font-variant: normal; text-decoration: none; vertical-align: baseline;&quot;&gt;&lt;span style=&quot;border:none;display:inline-block;overflow:hidden;width:605px;height:417px;&quot;&gt;&lt;img style=&quot;margin-left:0px;margin-top:0px;&quot; height=&quot;417&quot; width=&quot;605&quot; src=&quot;https://lh6.googleusercontent.com/aCTbkOkElOAkrUbNfRCpfP3q19dkZI7UBnQjivF6lVaajDhupzTJxNvK3S3KvP3z4U8IYueknIGzIj5pHihlA7-HgSz0KfiKP7BLnSabxnwjCb4isjMlFX68IcekVhnEgP1MIDuBv7w1&quot;&gt;&lt;/span&gt;&lt;/span&gt;&lt;/b&gt;" style="text;whiteSpace=wrap;html=1;" vertex="1" parent="1">
          <mxGeometry x="120" y="550" width="560" height="440" as="geometry" />
        </mxCell>
      </root>
    </mxGraphModel>
  </diagram>
</mxfile>
